<?xml version="1.0" ?><!DOCTYPE svg  PUBLIC '-//W3C//DTD SVG 1.1//EN'  'http://www.w3.org/Graphics/SVG/1.1/DTD/svg11.dtd'><svg height="1.04167in" style="shape-rendering:geometricPrecision; text-rendering:geometricPrecision; image-rendering:optimizeQuality; fill-rule:evenodd; clip-rule:evenodd" version="1.1" viewBox="0 0 5067 5067" width="1.04167in" xml:space="preserve" xmlns="http://www.w3.org/2000/svg" xmlns:xlink="http://www.w3.org/1999/xlink"><defs><style type="text/css">
   <![CDATA[
    .fil0 {fill:#ED2524}
    .fil1 {fill:white}
   ]]>
  </style></defs><g id="Layer_x0020_1"><g id="_541904720"><rect class="fil0" height="5067" rx="489" ry="489" width="5067"/><path class="fil1" d="M1592 2648c0,-17 -2,-18 -18,-38 -146,-188 -196,-425 -91,-650 25,-56 47,-96 80,-145 152,-225 416,-380 692,-434 355,-69 810,31 1064,249 21,18 44,36 61,52 138,134 243,342 239,547 -6,404 -345,634 -736,611 -61,-4 -131,-19 -191,-32 -90,-19 -94,-31 -94,-128l0 -676c0,-48 13,-183 -7,-214 -50,-32 -577,-44 -631,0 -23,62 2,833 4,963 7,221 18,534 -15,743 -58,359 -327,133 -458,99 -6,47 -3,120 -7,173 -5,53 -10,115 -7,167 6,116 27,192 113,235 155,79 398,108 580,43 320,-116 468,-426 473,-756 1,-52 -10,-126 -7,-168 204,42 346,73 570,33 470,-85 892,-424 1009,-881 98,-383 -19,-745 -204,-985 -170,-221 -404,-389 -747,-513 -463,-168 -1132,-174 -1608,31 -179,76 -249,121 -394,236 -487,384 -586,1220 -240,1715 24,34 54,59 70,88 51,-10 115,-49 151,-71 50,-30 80,-58 121,-92 44,-36 76,-68 116,-104 19,-17 35,-34 55,-52l45 -39c11,-8 4,-4 12,-7z"/></g></g></svg>